<svg id="Layer_1" style="enable-background:new 0 0 512 512" version="1.1" viewBox="0 0 512 512" xml:space="preserve" xmlns="http://www.w3.org/2000/svg"><style>.st0{fill:#fff}.st1{fill:#c60c30}.st2{fill:#003478}.st3{fill:#f93}.st4{fill:#128807}.st5{fill:#008}.st6{fill:#032774}.st7{fill:#df0333}.st8{fill:#ee2b2c}.st9{fill:#032767}.st10{fill:#006747}.st11{fill:#cd1225}.st12{fill:#fbc942}.st13{fill:#bd9b37}.st14{fill:#9ba068}.st15{fill:#707633}.st16{fill:#006748}.st17{fill:#cc2029}.st18{fill:#30c1db}.st19{fill:#f7c740}.st20{fill:#0c72a6}.st21{fill:#f8a952}.st22{fill:#943120}.st23{fill:#231f20}.st24{fill:#0b8388}.st25{fill:#8bbdbe}.st26{fill:#05534e}.st27{fill:none;stroke:#39b54a;stroke-width:.25px;stroke-miterlimit:10}.st28{fill:none;stroke:#00a651;stroke-miterlimit:10}.st29{fill:none;stroke:#00a651;stroke-width:.5px;stroke-miterlimit:10}.st30{fill:url(#SVGID_1_)}.st31{fill:url(#SVGID_2_)}.st32{fill:url(#SVGID_3_)}.st33{fill:url(#SVGID_4_)}.st34{fill:url(#SVGID_5_)}.st35{fill:url(#SVGID_6_)}.st36{fill:url(#SVGID_7_)}.st37{fill:url(#SVGID_8_)}.st38{fill:url(#SVGID_9_)}.st39{fill:url(#SVGID_10_)}.st40{fill:url(#SVGID_11_)}.st41{fill:url(#SVGID_12_)}.st42{fill:url(#SVGID_13_)}.st43{fill:url(#SVGID_14_)}.st44{fill:url(#SVGID_15_)}.st45{fill:#f8c73e}.st46{fill:#77722f}.st47{fill:#a7ab71}.st48{fill:#949457}.st49{fill:#ae6f2a}.st50{fill:#fff200}.st51{fill:#c5c6a6}.st52{fill:#a3a395}.st53{fill:#4c2915}.st54{fill:#8e4520}.st55{fill:#d1a467}.st56{fill:#aa6c2a}.st57{fill:#daac6d}.st58{fill:#8f4620}.st59{fill:#bc7e2f}.st60{fill:#e6e7e8}.st61{fill:#f06d19}.st62{fill:#19b43d}.st63{fill:#07a3dc}.st64{fill:#fbd023}.st65{fill:#ec2938}.st66{fill:#f9df47}.st67{fill:#0967c4}.st68{fill:#c5a310}.st69{clip-path:url(#SVGID_17_)}.st70{fill:#6fd7f2}.st71{clip-path:url(#SVGID_19_)}.st72{fill:#ff0303}.st73{fill:#ff6407}.st74{fill:#fdfe1f}.st75{fill:#00fe1e}.st76{fill:#08ccfe}.st77{fill:#120ffd}.st78{fill:#810480}.st79{fill:#0642a1}.st80{fill:#02275f}.st81{fill:#80a0d1}.st82{fill:#fb3b3a}.st83{fill:#ff0302}.st84{fill:#520200}.st85{fill:#940101}.st86{clip-path:url(#SVGID_21_)}.st87{fill:#91bb35}.st88{fill:#ece62b}.st89{fill:#c5ca2c}.st90{fill:#95c82b}.st91{fill:#009d4a}.st92{fill:#bf0a30}.st93{fill:#002868}.st94{fill:#028832}.st95{fill:#fbdc1d}.st96{fill:#d91219}.st97{fill:#0738a6}.st98{fill:#fd0302}.st99{fill:#060593}.st100{fill:#115ead}.st101{fill:#c50c1e}.st102{fill:#fec315}.st103{fill:#c7b011}.st104{fill:#ac1518}.st105{fill:#028e6e}.st106{fill:#cbcbcb}.st107{fill:#095bbd}.st108{fill:#c7b013}.st109{fill:#00aeef}.st110{fill:#c7b112}.st111{fill:#fed592}.st112{fill:#028d6e}.st113{fill:#c7b012}.st114{fill:#c6b011}.st115{fill:#103bee}.st116{fill:#db4445}.st117{fill:#ec72a9}.st118{fill:#006133}.st119{fill:#d11133}.st120{fill:#042b7d}.st121{fill:#fec527}.st122{fill:#bf920d}</style><path class="st96" d="M510.4 284.4c-.3 2.6-.7 5.2-1 7.8-.2 1-.3 2.1-.5 3.2-.5 3.2-1.1 6.4-1.7 9.7l-.3 1.5v.1l-.2 1c-2.5 11.9-5.6 22.9-9.4 33.7H14.6c-3.4-9.8-6.3-19.8-8.6-30.1-.2-.5-.3-1-.4-1.5-.1-.5-.2-1-.3-1.4-1.6-7.9-2.9-15.8-3.7-23.9h508.8z"/><path class="st95" d="M497.4 341.3c-5.3 14.9-11.9 29.1-19.7 42.6-2.8 4.9-5.8 9.6-8.9 14.3H43.1c-3.1-4.7-6-9.4-8.8-14.3-7.8-13.4-14.4-27.8-19.7-42.6h482.8z"/><path class="st96" d="M468.8 398.2c-4.1 6.1-8.4 12.1-13 17.8-11.5 14.4-24.5 27.5-38.8 39.1H95c-14.3-11.6-27.4-24.7-38.8-39.1-4.6-5.7-9-11.7-13.1-17.8h425.7z"/><path class="st95" d="M417 455.1C372.9 490.7 317 512 256 512s-117-21.3-161-56.9h322z"/><path class="st96" d="M468.8 113.8H43.2c4.1-6.1 8.4-12.1 13-17.8 11.6-14.4 24.7-27.6 39-39.1h321.7c14.4 11.6 27.4 24.7 39 39.1 4.5 5.7 8.9 11.6 12.9 17.8z"/><path class="st95" d="M416.8 56.9H95.1C139.1 21.3 195 0 256 0c60.9 0 116.9 21.3 160.8 56.9zM497.4 170.7H14.6c5.2-14.9 11.8-29.2 19.7-42.7 2.8-4.8 5.7-9.6 8.9-14.2h425.7c3.1 4.6 6.1 9.4 8.9 14.2 7.7 13.5 14.3 27.7 19.6 42.7z"/><path class="st96" d="M510.4 227.6H1.6s.1-.3.1-.5v-.1l.1-.6c2.2-19.3 6.6-37.9 12.9-55.7h482.8c3.2 8.8 5.7 17.9 7.9 27.1.1.2.1.5.2.7 0 0 .1.5.2.7 1.3 5.9 2.4 11.8 3.4 17.8 0 0 0 .4.1.6 0 0 .1.4.1.6.2 3.1.7 6.2 1 9.4z"/><path class="st95" d="M512 256c0 1.3 0 2.5-.1 3.8V261.5l-.1.3v.6c-.2 7.4-.7 14.8-1.4 22.1H1.6c-.2-1.6-.3-3-.5-4.5-.1-.9-.2-1.7-.2-2.5-.5-4.9-.7-10-.9-15.1V256c0-1.7 0-3.5.1-5.2V249.9c.1-5.3.4-10.5.9-15.6 0-.2.1-.5.1-.5 0-.5.1-.7.1-.9.2-1.7.3-3.4.5-5.1v-.2h508.8c.8 7.2 1.3 14.6 1.5 22.1 0 0 .1.4 0 .6 0 0 .1.4.1.6-.2 1.6-.1 3.4-.1 5.1z"/></svg>